<?xml version="1.0" encoding="UTF-8" standalone="no"?>
<!-- Created with Inkscape (http://www.inkscape.org/) -->

<svg
   xmlns:dc="http://purl.org/dc/elements/1.1/"
   xmlns:cc="http://creativecommons.org/ns#"
   xmlns:rdf="http://www.w3.org/1999/02/22-rdf-syntax-ns#"
   xmlns:svg="http://www.w3.org/2000/svg"
   xmlns="http://www.w3.org/2000/svg"
   xmlns:xlink="http://www.w3.org/1999/xlink"
   xmlns:sodipodi="http://sodipodi.sourceforge.net/DTD/sodipodi-0.dtd"
   xmlns:inkscape="http://www.inkscape.org/namespaces/inkscape"
   width="210mm"
   height="297mm"
   viewBox="0 0 744.09448819 1052.3622047"
   id="svg2"
   version="1.1"
   inkscape:version="0.91 r13725"
   sodipodi:docname="braso_derecho.svg">
  <defs
     id="defs4">
    <linearGradient
       inkscape:collect="always"
       id="linearGradient5628">
      <stop
         style="stop-color:#b3b2c1;stop-opacity:1;"
         offset="0"
         id="stop5630" />
      <stop
         style="stop-color:#b3b2c1;stop-opacity:0;"
         offset="1"
         id="stop5632" />
    </linearGradient>
    <linearGradient
       id="linearGradient4156"
       inkscape:collect="always">
      <stop
         id="stop4158"
         offset="0"
         style="stop-color:#b3b2c1;stop-opacity:0.41960785" />
      <stop
         id="stop4160"
         offset="1"
         style="stop-color:#909090;stop-opacity:0;" />
    </linearGradient>
    <linearGradient
       inkscape:collect="always"
       id="4158-10-5">
      <stop
         style="stop-color:#b3b2c1;stop-opacity:0.41960785"
         offset="0"
         id="stop4150" />
      <stop
         style="stop-color:#909090;stop-opacity:0;"
         offset="1"
         id="stop4152" />
    </linearGradient>
    <linearGradient
       inkscape:collect="always"
       xlink:href="#4158-10-5"
       id="linearGradient4146"
       x1="127.23171"
       y1="363.53433"
       x2="164.96371"
       y2="347.23187"
       gradientUnits="userSpaceOnUse"
       gradientTransform="translate(-0.9781467,-10.433565)" />
    <linearGradient
       inkscape:collect="always"
       xlink:href="#linearGradient4156"
       id="linearGradient4154"
       x1="127.23171"
       y1="363.53433"
       x2="164.96371"
       y2="347.23187"
       gradientUnits="userSpaceOnUse"
       gradientTransform="translate(-0.9781467,-10.433565)" />
    <linearGradient
       inkscape:collect="always"
       xlink:href="#linearGradient5628"
       id="linearGradient5634"
       x1="79.547318"
       y1="532.20874"
       x2="125.7308"
       y2="513.95001"
       gradientUnits="userSpaceOnUse" />
    <linearGradient
       inkscape:collect="always"
       xlink:href="#linearGradient5628"
       id="linearGradient5652"
       x1="73.707619"
       y1="416.8808"
       x2="190.17278"
       y2="425.35806"
       gradientUnits="userSpaceOnUse" />
    <linearGradient
       inkscape:collect="always"
       xlink:href="#linearGradient5628"
       id="linearGradient5662"
       x1="93.240303"
       y1="604.10461"
       x2="84.740997"
       y2="624.9718"
       gradientUnits="userSpaceOnUse" />
    <linearGradient
       inkscape:collect="always"
       xlink:href="#linearGradient4156"
       id="linearGradient5670"
       x1="93.240303"
       y1="604.10461"
       x2="84.740997"
       y2="624.9718"
       gradientUnits="userSpaceOnUse" />
  </defs>
  <sodipodi:namedview
     id="base"
     pagecolor="#ffffff"
     bordercolor="#666666"
     borderopacity="1.0"
     inkscape:pageopacity="0.0"
     inkscape:pageshadow="2"
     inkscape:zoom="3.0670246"
     inkscape:cx="94.387256"
     inkscape:cy="407.32489"
     inkscape:document-units="px"
     inkscape:current-layer="layer1"
     showgrid="false"
     inkscape:window-width="831"
     inkscape:window-height="679"
     inkscape:window-x="54"
     inkscape:window-y="3"
     inkscape:window-maximized="0" />
  <metadata
     id="metadata7">
    <rdf:RDF>
      <cc:Work
         rdf:about="">
        <dc:format>image/svg+xml</dc:format>
        <dc:type
           rdf:resource="http://purl.org/dc/dcmitype/StillImage" />
        <dc:title />
      </cc:Work>
    </rdf:RDF>
  </metadata>
  <g
     inkscape:label="Capa 1"
     inkscape:groupmode="layer"
     id="layer1">
    <path
       style="fill:#dbded7;fill-rule:evenodd;stroke:#dbded7;stroke-width:1px;stroke-linecap:butt;stroke-linejoin:miter;stroke-opacity:1;fill-opacity:1"
       d="m 190.8749,197.83018 c -21.72415,9.55592 -37.29428,27.59122 -42.10905,35.37828 -7.37244,10.98482 -10.29258,19.26607 -14.92502,30.25089 -2.67285,11.61063 -3.67079,22.66295 -2.02299,32.83336 0.014,12.43203 -2.89644,15.93107 -5.50946,21.79567 -7.08088,18.15679 -19.83081,36.31358 -29.467982,54.47037 l -10.618084,11.69952 c -6.393084,11.19715 -8.009066,24.78286 -11.839388,37.2614 -8.550019,14.20915 -8.913204,52.9788 -12.240228,82.85693 1.227597,4.7634 2.982239,8.47271 5.649336,10.35711 -7.17366,19.49744 -11.180479,27.89828 -14.12334,40.48691 -4.607485,15.48553 -6.169353,30.25932 -5.910305,43.85229 1.404383,10.49466 4.02263,14.91999 6.851861,18.29041 6.223811,5.80902 20.824722,17.30748 28.42411,18.98977 l 13.004355,5.49069 c 8.406965,3.5665 17.596365,4.78568 27.444995,4.02719 7.10848,-0.0235 13.12754,1.04242 21.51592,-0.26097 7.3755,-2.58934 14.30681,-6.28914 18.83112,-16.00645 4.99266,-9.66505 10.47516,-17.37077 14.12334,-32.41375 1.93628,-12.80348 1.44639,-27.22442 -0.94156,-42.91073 -2.31472,-6.25093 0.22313,-9.26681 -14.12334,-23.53891 l -3.88732,-6.45101 c 4.14313,-13.85611 9.8732,-27.71223 11.41977,-41.56834 10.48914,-32.50819 7.01133,-37.00763 9.81641,-52.86701 l -0.40085,-8.33413 c -1.90207,-1.22775 2.91031,-7.41836 33.89602,-32.95447 18.64287,-78.38962 41.29436,-158.65477 -22.85832,-190.73502 z"
       id="path4174"
       inkscape:connector-curvature="0"
       sodipodi:nodetypes="ccccccccccccccccccccccccccc" />
    <path
       style="fill:none;fill-rule:evenodd;stroke:#909090;stroke-width:1px;stroke-linecap:butt;stroke-linejoin:miter;stroke-opacity:1"
       d="m 173.2616,608.57865 c 4.01689,-23.54158 -9.27176,-32.96142 -26.04238,-35.60898 -11.20724,3.14335 -20.62768,12.61089 -16.58324,25.01525 0.84024,5.79337 1.60111,11.6132 4.97929,16.5606"
       id="path4134"
       inkscape:connector-curvature="0"
       sodipodi:nodetypes="cccc" />
    <path
       style="fill:url(#linearGradient5634);fill-rule:evenodd;stroke:#909090;stroke-width:1px;stroke-linecap:butt;stroke-linejoin:miter;stroke-opacity:1;fill-opacity:1"
       d="m 67.166073,514.70757 c 34.945457,-0.60164 68.774937,-0.0873 92.597887,10.43356"
       id="path4136"
       inkscape:connector-curvature="0"
       sodipodi:nodetypes="cc" />
    <path
       style="fill:url(#linearGradient4146);fill-opacity:1;fill-rule:evenodd;stroke:url(#linearGradient4154);stroke-width:1px;stroke-linecap:butt;stroke-linejoin:miter;stroke-opacity:1"
       d="m 170.19752,288.75569 c -72.155048,3.83897 -24.27643,150.19041 15.9764,108.90033"
       id="path4138"
       inkscape:connector-curvature="0"
       sodipodi:nodetypes="cc" />
    <path
       style="fill:none;fill-rule:evenodd;stroke:url(#linearGradient5652);stroke-width:1px;stroke-linecap:butt;stroke-linejoin:miter;stroke-opacity:1"
       d="m 75.969393,410.04587 c 20.085679,-14.89047 71.426137,-0.0293 103.031457,11.08566"
       id="path5644"
       inkscape:connector-curvature="0"
       sodipodi:nodetypes="cc" />
    <path
       style="fill:url(#linearGradient5670);fill-rule:evenodd;stroke:url(#linearGradient5662);stroke-width:0.6;stroke-linecap:butt;stroke-linejoin:miter;stroke-opacity:1;stroke-miterlimit:4;stroke-dasharray:none;fill-opacity:1"
       d="m 48.581286,604.37102 c 65.253434,2.10762 92.224284,15.60886 84.446664,39.45191"
       id="path5654"
       inkscape:connector-curvature="0"
       sodipodi:nodetypes="cc" />
  </g>
</svg>
