<?xml version="1.0" encoding="UTF-8" standalone="no"?>
<!-- Created with Inkscape (http://www.inkscape.org/) -->

<svg
   xmlns:dc="http://purl.org/dc/elements/1.1/"
   xmlns:cc="http://creativecommons.org/ns#"
   xmlns:rdf="http://www.w3.org/1999/02/22-rdf-syntax-ns#"
   xmlns:svg="http://www.w3.org/2000/svg"
   xmlns="http://www.w3.org/2000/svg"
   xmlns:sodipodi="http://sodipodi.sourceforge.net/DTD/sodipodi-0.dtd"
   xmlns:inkscape="http://www.inkscape.org/namespaces/inkscape"
   width="210mm"
   height="297mm"
   viewBox="0 0 744.09448819 1052.3622047"
   id="svg2"
   version="1.1"
   inkscape:version="0.91 r13725"
   sodipodi:docname="cola.svg">
  <defs
     id="defs4" />
  <sodipodi:namedview
     id="base"
     pagecolor="#ffffff"
     bordercolor="#666666"
     borderopacity="1.0"
     inkscape:pageopacity="0.0"
     inkscape:pageshadow="2"
     inkscape:zoom="2.56"
     inkscape:cx="411.55666"
     inkscape:cy="287.23425"
     inkscape:document-units="px"
     inkscape:current-layer="layer1"
     showgrid="false"
     inkscape:window-width="1366"
     inkscape:window-height="705"
     inkscape:window-x="-8"
     inkscape:window-y="-8"
     inkscape:window-maximized="1" />
  <metadata
     id="metadata7">
    <rdf:RDF>
      <cc:Work
         rdf:about="">
        <dc:format>image/svg+xml</dc:format>
        <dc:type
           rdf:resource="http://purl.org/dc/dcmitype/StillImage" />
        <dc:title />
      </cc:Work>
    </rdf:RDF>
  </metadata>
  <g
     inkscape:label="Capa 1"
     inkscape:groupmode="layer"
     id="layer1">
    <path
       style="fill:#dbded7;fill-opacity:0.96590905;fill-rule:evenodd;stroke:#dbded7;stroke-width:1px;stroke-linecap:butt;stroke-linejoin:miter;stroke-opacity:1"
       d="m 401.89873,800.46347 c -2.66169,-0.49317 -31.10587,30.95184 -103.16455,32.91139 -15.3325,-1.8728 -34.03774,-3.13238 -38.6076,-6.96202 -13.6894,-5.90717 -17.72152,-11.81435 -26.58228,-17.72152 -44.86674,-35.44877 -49.59032,-59.65745 -53.16455,-83.54431 -3.71,-28.65391 -2.82858,-50.87984 1.89873,-67.72151 4.36756,-27.01931 16.94611,-49.55989 39.87342,-66.4557 12.22296,-7.19965 26.82008,-9.65098 42.40506,-10.12658 36.70131,-5.6042 34.30913,25.18666 12.65823,43.67088 -16.18031,17.51055 -21.35754,35.0211 -18.98734,52.53165 2.43073,16.24473 3.165,32.48945 28.48101,48.73418 20.13072,11.47344 40.8435,16.5443 62.65823,9.49367 18.62855,-5.34508 38.37075,-6.97795 62.02532,4.43038 42.2853,17.82625 49.27332,33.79475 60.75949,50 16.20483,23.02181 33.16615,65.91379 20.25316,62.02531 -65.18061,-52.60512 -62.49485,-61.1793 -90.50633,-51.26582 z"
       id="path4153"
       inkscape:connector-curvature="0"
       sodipodi:nodetypes="cccccccccccccccc" />
  </g>
</svg>
