<?xml version="1.0" encoding="UTF-8" standalone="no"?>
<!-- Created with Inkscape (http://www.inkscape.org/) -->

<svg
   xmlns:dc="http://purl.org/dc/elements/1.1/"
   xmlns:cc="http://creativecommons.org/ns#"
   xmlns:rdf="http://www.w3.org/1999/02/22-rdf-syntax-ns#"
   xmlns:svg="http://www.w3.org/2000/svg"
   xmlns="http://www.w3.org/2000/svg"
   xmlns:sodipodi="http://sodipodi.sourceforge.net/DTD/sodipodi-0.dtd"
   xmlns:inkscape="http://www.inkscape.org/namespaces/inkscape"
   width="210mm"
   height="297mm"
   viewBox="0 0 744.09448819 1052.3622047"
   id="svg2"
   version="1.1"
   inkscape:version="0.91 r13725"
   sodipodi:docname="torso.svg">
  <defs
     id="defs4" />
  <sodipodi:namedview
     id="base"
     pagecolor="#ffffff"
     bordercolor="#666666"
     borderopacity="1.0"
     inkscape:pageopacity="0.0"
     inkscape:pageshadow="2"
     inkscape:zoom="1.1942101"
     inkscape:cx="419.95531"
     inkscape:cy="645.10818"
     inkscape:document-units="px"
     inkscape:current-layer="layer1"
     showgrid="false"
     inkscape:window-width="1366"
     inkscape:window-height="705"
     inkscape:window-x="-8"
     inkscape:window-y="-8"
     inkscape:window-maximized="1" />
  <metadata
     id="metadata7">
    <rdf:RDF>
      <cc:Work
         rdf:about="">
        <dc:format>image/svg+xml</dc:format>
        <dc:type
           rdf:resource="http://purl.org/dc/dcmitype/StillImage" />
        <dc:title />
      </cc:Work>
    </rdf:RDF>
  </metadata>
  <g
     inkscape:label="Capa 1"
     inkscape:groupmode="layer"
     id="layer1">
    <path
       style="fill:#dbded7;fill-rule:evenodd;stroke:#dbded7;stroke-width:1px;stroke-linecap:butt;stroke-linejoin:miter;stroke-opacity:1;fill-opacity:1"
       d="m 186.99741,196.18122 c -1.34279,67.76643 4.39541,133.40856 28.04961,193.67589 4.45232,22.50867 8.90464,33.93465 13.35696,44.07796 9.22794,13.68026 12.87459,23.66235 12.17454,27.41461 5.65802,29.15296 1.41681,28.83714 2.51811,42.04157 10.47552,70.26352 45.13042,129.96067 92.71042,134.51113 l 39.12932,1.57656 c 57.47401,-5.67136 84.51896,-48.5368 107.2498,-101.3596 -9.64855,-37.84694 -1.77181,-52.78043 0,-76.92294 14.04978,-17.57833 21.41621,-39.26757 28.04961,-59.31803 21.08717,-58.86527 34.04643,-120.43984 40.07087,-184.32602 -97.12954,10.1719 -233.72553,-1.54819 -363.30924,-21.37113 z"
       id="path4164"
       inkscape:connector-curvature="0"
       sodipodi:nodetypes="cccccccccccc" />
  </g>
</svg>
